<?xml version="1.0" standalone="yes"?>
<svg xmlns="http://www.w3.org/2000/svg" width="512" height="512">
<path style="fill:#0d0b0e; stroke:none;" d="M0 0L0 426L1 426C6.04583 420.707 13.2206 422 20 422L63 422L63 185L63 126C63 119.421 61.0323 109.318 66.2284 104.279C72.6234 98.0766 87.7804 101 96 101L175 101L175 100C136.728 77.8772 160.451 18.0184 203 26.0949C220.844 29.482 235.556 45.5608 235.985 64C236.312 78.0478 224.658 93.2652 244 100.397C249.409 102.391 257.291 101 263 101L304 101L443 101L491 101C498.36 101 505.917 99.7488 511 106L512 106L512 0L0 0z"/>
<path style="fill:#7045c4; stroke:none;" d="M191 25.4391C183.689 26.5781 176.926 28.6587 171.015 33.2392C139.108 57.9634 160.148 111.586 201 105.7C252.714 98.248 242.226 17.4582 191 25.4391z"/>
<path style="fill:#0101ff; stroke:none;" d="M185 26L186 27L185 26M217 31L218 32L217 31M168 35L169 36L168 35M165 38L166 39L165 38M227 40L228 41L227 40M156 76L157 77L156 76M233 80L234 81L233 80z"/>
<path style="fill:#feecc3; stroke:none;" d="M229 88C219.813 100.057 206.604 107.743 191 105.711C184.777 104.9 179.202 101.399 173 101.043C150.162 99.7348 126.879 101 104 101C94.6141 101 73.6988 97.1214 66.2284 103.514C60.9091 108.066 63 118.748 63 125L63 183L63 422L18 422C13.2319 422 5.26012 420.513 1.74228 424.573C-3.8907 431.073 2.63164 445.685 5.80941 452C8.34578 457.04 11.7572 461.723 15.439 465.985C40.934 495.5 88.3777 487 123 487L386 487C420.504 487 465.837 495.201 492.996 468.961C513.094 449.543 512 425.779 512 400L512 295L512 149L512 115C511.998 110.422 512.577 104.885 507.891 102.318C502.171 99.1835 492.332 101 486 101L433 101L302 101L263 101C257.569 101 250.15 102.295 245 100.397C238.644 98.053 235.189 90.8862 229 88z"/>
<path style="fill:#f4943a; stroke:none;" d="M227 90L228 91L227 90M220 97L221 98L220 97M219 98L220 99L219 98z"/>
<path style="fill:#0d0b0e; stroke:none;" d="M217 100L218 101L217 100z"/>
<path style="fill:#f4943a; stroke:none;" d="M181 103L182 104L181 103M209 103L210 104L209 103M184 104L185 105L184 104M206 104L207 105L206 104M189 105L190 106L189 105M202 105L203 106L202 105M301 206L302 207L301 206z"/>
<path style="fill:#7045c4; stroke:none;" d="M302.015 206.612C291.914 209.143 296 232.073 296 240L296 278C296 282.614 294.949 289.028 299.228 292.142C305.299 296.56 317.384 292.911 324 291.346C351.852 284.757 371.134 257.088 352.073 231C346.228 223.001 337.81 217.94 329 213.781C321.922 210.439 310.058 204.597 302.015 206.612z"/>
<path style="fill:#f4943a; stroke:none;" d="M306.667 206.333L307.333 206.667L306.667 206.333M311 207L312 208L311 207M315 208L316 209L315 208M318 209L319 210L318 209M296 210L297 211L296 210M321 210L322 211L321 210M323 211L324 212L323 211M326 212L327 213L326 212M328 213L329 214L328 213M140 214L141 215L140 214z"/>
<path style="fill:#7045c4; stroke:none;" d="M160 230L160 279C160 284.493 159.395 293.118 167.004 293.663C175.09 294.242 175 285.606 175 280L175 230C180.783 230 189.735 231.673 194.941 228.821C200.662 225.688 199.936 217.12 193.981 214.742C183.927 210.728 166.796 214 156 214C151.271 214 144.379 212.775 140.109 215.179C134.993 218.059 134.94 225.85 140.109 228.682C145.413 231.588 154.133 230 160 230z"/>
<path style="fill:#f4943a; stroke:none;" d="M194 214L195 215L194 214M226.667 214.333L227.333 214.667L226.667 214.333z"/>
<path style="fill:#7045c4; stroke:none;" d="M228 214.465C202.486 219.023 194.639 250.595 203.208 272C208.397 284.964 221.092 296.321 236 293.532C261.556 288.752 269.096 254.746 259.215 234C253.628 222.269 241.854 211.989 228 214.465z"/>
<path style="fill:#f4943a; stroke:none;" d="M236.667 214.333L237.333 214.667L236.667 214.333M330 214L331 215L330 214M402.667 214.333L403.333 214.667L402.667 214.333z"/>
<path style="fill:#7045c4; stroke:none;" d="M404 214.465C378.702 218.985 370.923 250.88 379.453 272C384.689 284.965 397.098 296.199 412 293.535C437.777 288.928 444.725 256.005 435.982 235C430.826 222.611 418.105 211.944 404 214.465z"/>
<path style="fill:#f4943a; stroke:none;" d="M412.667 214.333L413.333 214.667L412.667 214.333M196 215L197 216L196 215M222.667 215.333L223.333 215.667L222.667 215.333M240 215L241 216L240 215M332 215L333 216L332 215M399 215L400 216L399 215M416 215L417 216L416 215M197 216L198 217L197 216M220 216L221 217L220 216M242 216L243 217L242 216M334 216L335 217L334 216M396 216L397 217L396 216M218 217L219 218L218 217M244 217L245 218L244 217M336 217L337 218L336 217M136 218L137 219L136 218M246 218L247 219L246 218M422 218L423 219L422 218M215 219L216 220L215 219M339 219L340 220L339 219M391 219L392 220L391 219M199 220L199 224L200 224L199 220M390 220L391 221L390 220M425 220L426 221L425 220M135.333 221.667L135.667 222.333L135.333 221.667M250 221L251 222L250 221M342 221L343 222L342 221M426 221L427 222L426 221M251 222L252 223L251 222M343 222L344 223L343 222M427 222L428 223L427 222M252 223L253 224L252 223M428 223L429 224L428 223M312 224L313 225L312 224M386 224L387 225L386 224M429 224L430 225L429 224M136 225L137 226L136 225z"/>
<path style="fill:#feecc3; stroke:none;" d="M312 225L312 277C316.88 276.787 321.385 275.561 326 273.996C329.567 272.787 332.944 271.377 335.96 269.072C358 252.226 330.245 227.733 312 225z"/>
<path style="fill:#f4943a; stroke:none;" d="M315 225L316 226L315 225M385 225L386 226L385 225M430 225L431 226L430 225M208 226L209 227L208 226M318 226L319 227L318 226M197 227L198 228L197 227M255 227L256 228L255 227M320 227L321 228L320 227M256 228L257 229L256 228M432 228L433 229L432 228M141 229L142 230L141 229M194 229L195 230L194 229M206 229L207 230L206 229M382 229L383 230L382 229M159 230L159 286L160 286L160 248L159 230M175 230L175 288L176 288L176 249L175 230M228 230L229 231L228 230z"/>
<path style="fill:#feecc3; stroke:none;" d="M229 230.587C214.676 234.318 213.717 256.036 218.468 267C221.021 272.89 226.976 279.063 234 277.427C248.417 274.068 249.765 252.112 245.045 241C242.451 234.894 236.242 228.701 229 230.587z"/>
<path style="fill:#f4943a; stroke:none;" d="M234 230L235 231L234 230M257 230L258 231L257 230M351 230L352 231L351 230M404 230L405 231L404 230z"/>
<path style="fill:#feecc3; stroke:none;" d="M405 230.657C391.08 234.839 389.571 255.869 394.529 267C397.281 273.178 403.647 279.553 411 277.343C424.949 273.152 425.853 251.975 421.12 241C418.432 234.768 412.464 228.414 405 230.657z"/>
<path style="fill:#f4943a; stroke:none;" d="M411 230L412 231L411 230M237 231L238 232L237 231M328 231L329 232L328 231M352 231L353 232L352 231M381 231L382 232L381 231M402 231L403 232L402 231M413 231L414 232L413 231M434 231L435 232L434 231M224 232L225 233L224 232M238 232L239 233L238 232M258 232L259 233L258 232M223 233L224 234L223 233M331 233L332 234L331 233M380 233L381 234L380 233M399 233L400 234L399 233M222 234L223 235L222 234M259 234L260 235L259 234M354 234L355 235L354 234M398 234L399 235L398 234M221 235L222 236L221 235M379 235L380 236L379 235M242 236L243 237L242 236M260 236L261 237L260 236M335 236L336 237L335 236M355 236L356 237L355 236M436 236L437 237L436 236M202 237L203 238L202 237M336 237L337 238L336 237M396 237L397 238L396 237M419 237L420 238L419 237M219 238L220 239L219 238M337 238L338 239L337 238M356 238L357 239L356 238M378 238L379 239L378 238M437 238L438 239L437 238M244 239L245 240L244 239M261 239L262 240L261 239M420 239L421 240L420 239M201 240L202 241L201 240M218 240L219 241L218 240M357 240L358 241L357 240M377 241L378 242L377 241M421 241L422 242L421 241M217 242L218 243L217 242M262.333 242.667L262.667 243.333L262.333 242.667M340 242L341 243L340 242M438 242L439 243L438 242M358.333 243.667L358.667 244.333L358.333 243.667M393 243L394 244L393 243M200.333 244.667L200.667 245.333L200.333 244.667M246.333 244.667L246.667 245.333L246.333 244.667M341 244L342 245L341 244M422 244L423 245L422 244M376 245L376 248L377 248L376 245M216 246L217 247L216 246M342 246L343 247L342 246M392.333 246.667L392.667 247.333L392.333 246.667M439 247L439 250L440 250L439 247M263 248L263 260L264 260L263 248M359 248L359 251L360 251L359 248M423.333 248.667L423.667 249.333L423.333 248.667M247 249L247 253L248 253L247 249M343.333 250.667L343.667 251.333L343.333 250.667M215.333 253.667L215.667 254.333L215.333 253.667M247 255L247 259L248 259L247 255M343.333 256.667L343.667 257.333L343.333 256.667M359 257L359 260L360 260L359 257M423.333 258.667L423.667 259.333L423.333 258.667M439 258L439 261L440 261L439 258M342 260L343 261L342 260M376 260L376 263L377 263L376 260M392 260L393 261L392 260M216 261L217 262L216 261M200.333 262.667L200.667 263.333L200.333 262.667M246.333 262.667L246.667 263.333L246.333 262.667M358 263L359 264L358 263M422 263L423 264L422 263M217.333 264.667L217.667 265.333L217.333 264.667M262.333 264.667L262.667 265.333L262.333 264.667M340 264L341 265L340 264M393 264L394 265L393 264M438 265L439 266L438 265M357 266L358 267L357 266M377 266L378 267L377 266M421 266L422 267L421 266M201 267L202 268L201 267M218 267L219 268L218 267M244 268L245 269L244 268M261 268L262 269L261 268M336 268L337 269L336 268M420 268L421 269L420 268M437.333 268.667L437.667 269.333L437.333 268.667M219 269L220 270L219 269M335 269L336 270L335 269M378 269L379 270L378 269M202 270L203 271L202 270M396 270L397 271L396 270M419 270L420 271L419 270M242 271L243 272L242 271M260 271L261 272L260 271M436 271L437 272L436 271M203 272L204 273L203 272M221 272L222 273L221 272M330 272L331 273L330 272M354 272L355 273L354 272M379 272L380 273L379 272M222 273L223 274L222 273M259 273L260 274L259 273M327 273L328 274L327 273M398 273L399 274L398 273M223 274L224 275L223 274M324.667 274.333L325.333 274.667L324.667 274.333M380 274L381 275L380 274M399 274L400 275L399 274M224 275L225 276L224 275M238 275L239 276L238 275M258 275L259 276L258 275M321 275L322 276L321 275M226 276L227 277L226 276M317 276L318 277L317 276M351 276L352 277L351 276M381 276L382 277L381 276M402 276L403 277L402 276M413 276L414 277L413 276M228 277L229 278L228 277M234 277L235 278L234 277M257 277L258 278L257 277M350 277L351 278L350 277M404 277L405 278L404 277M411 277L412 278L411 277M206 278L207 279L206 278M349 278L350 279L349 278M382 278L383 279L382 278M348 279L349 280L348 279M432 279L433 280L432 279M255 280L256 281L255 280M208 281L209 282L208 281M344 282L345 283L344 282M385 282L386 283L385 282M386 283L387 284L386 283M429 283L430 284L429 283M252 284L253 285L252 284M341 284L342 285L341 284M428 284L429 285L428 284M251 285L252 286L251 285M339 285L340 286L339 285M427 285L428 286L427 285M337 286L338 287L337 286M426 286L427 287L426 286M335 287L336 288L335 287M390 287L391 288L390 287M425 287L426 288L425 287M215 288L216 289L215 288M333 288L334 289L333 288M160 289L161 290L160 289M246 289L247 290L246 289M296 289L297 290L296 289M330 289L331 290L330 289M422 289L423 290L422 289M218 290L219 291L218 290M244 290L245 291L244 290M327 290L328 291L327 290M173 291L174 292L173 291M220 291L221 292L220 291M242 291L243 292L242 291M323 291L324 292L323 291M396 291L397 292L396 291M223 292L224 293L223 292M240 292L241 293L240 292M318.667 292.333L319.333 292.667L318.667 292.333M399 292L400 293L399 292M416 292L417 293L416 292M164 293L165 294L164 293M170 293L171 294L170 293M226.667 293.333L227.333 293.667L226.667 293.333M236 293L237 294L236 293M301 293L302 294L301 293M311 293L311 294L314 294L311 293M402.667 293.333L403.333 293.667L402.667 293.333M412.667 293.333L413.333 293.667L412.667 293.333M213.044 318.742C206.069 321.584 206.916 331.59 214.005 333.566C225.697 336.826 241.862 334 254 334L339 334L368 334C371.91 334 377.331 334.887 380.606 332.258C385.172 328.592 384.148 321.372 378.895 319.009C371.938 315.88 360.52 318 353 318L255 318C243.218 318 223.969 314.29 213.044 318.742M229.044 358.742C222.069 361.584 222.916 371.59 230.005 373.566C238.01 375.798 248.711 374 257 374L313 374C319.962 374 334.943 376.803 340.606 372.258C347.08 367.061 341.864 358.877 335 358.109C310.976 355.419 285.188 358 261 358C251.872 358 237.541 355.28 229.044 358.742z"/>
<path style="fill:#0d0b0e; stroke:none;" d="M511 434C510.106 440.634 507.831 447.153 504.56 453C484.487 488.882 447.631 487 412 487L103 487C67.3324 487 30.736 490.125 8.69907 456C4.93841 450.176 2.41516 443.769 1 437L0 437L0 512L512 512L512 458L511 434z"/>
</svg>
